<mxfile host="app.diagrams.net" modified="2023-10-24T06:52:55.884Z" agent="Mozilla/5.0 (Windows NT 10.0; Win64; x64) AppleWebKit/537.36 (KHTML, like Gecko) Chrome/118.0.0.0 Safari/537.36" etag="vbBZgK3a2x5SoXKichcz" version="22.0.6" type="device">
  <diagram name="Страница — 1" id="d5xYdlF5_PN4O4rnVXcq">
    <mxGraphModel dx="1562" dy="818" grid="1" gridSize="10" guides="1" tooltips="1" connect="1" arrows="1" fold="1" page="1" pageScale="1" pageWidth="827" pageHeight="1169" math="0" shadow="0">
      <root>
        <mxCell id="0" />
        <mxCell id="1" parent="0" />
        <mxCell id="Hz2MizUJASv87qqMX5tw-22" value="PostgreSQL Server" style="verticalAlign=top;align=left;spacingTop=8;spacingLeft=2;spacingRight=12;shape=cube;size=10;direction=south;fontStyle=4;html=1;whiteSpace=wrap;" vertex="1" parent="1">
          <mxGeometry x="660" y="40" width="150" height="570" as="geometry" />
        </mxCell>
        <mxCell id="Hz2MizUJASv87qqMX5tw-21" value="Back end. Kubernates claster" style="verticalAlign=top;align=left;spacingTop=8;spacingLeft=2;spacingRight=12;shape=cube;size=10;direction=south;fontStyle=4;html=1;whiteSpace=wrap;" vertex="1" parent="1">
          <mxGeometry x="195" y="40" width="450" height="570" as="geometry" />
        </mxCell>
        <mxCell id="Hz2MizUJASv87qqMX5tw-20" value="Clients App (Front end)" style="verticalAlign=top;align=left;spacingTop=8;spacingLeft=2;spacingRight=12;shape=cube;size=10;direction=south;fontStyle=4;html=1;whiteSpace=wrap;" vertex="1" parent="1">
          <mxGeometry x="10" y="40" width="140" height="570" as="geometry" />
        </mxCell>
        <mxCell id="Hz2MizUJASv87qqMX5tw-38" value="" style="edgeStyle=orthogonalEdgeStyle;rounded=0;orthogonalLoop=1;jettySize=auto;html=1;" edge="1" parent="1" source="Hz2MizUJASv87qqMX5tw-1" target="Hz2MizUJASv87qqMX5tw-36">
          <mxGeometry relative="1" as="geometry">
            <Array as="points">
              <mxPoint x="180" y="220" />
              <mxPoint x="180" y="285" />
            </Array>
          </mxGeometry>
        </mxCell>
        <mxCell id="Hz2MizUJASv87qqMX5tw-40" style="edgeStyle=orthogonalEdgeStyle;rounded=0;orthogonalLoop=1;jettySize=auto;html=1;entryX=0;entryY=0.5;entryDx=0;entryDy=0;" edge="1" parent="1" source="Hz2MizUJASv87qqMX5tw-1" target="Hz2MizUJASv87qqMX5tw-30">
          <mxGeometry relative="1" as="geometry">
            <Array as="points">
              <mxPoint x="180" y="220" />
              <mxPoint x="180" y="130" />
            </Array>
          </mxGeometry>
        </mxCell>
        <mxCell id="Hz2MizUJASv87qqMX5tw-1" value="Mobile App" style="whiteSpace=wrap;html=1;aspect=fixed;" vertex="1" parent="1">
          <mxGeometry x="40" y="180" width="80" height="80" as="geometry" />
        </mxCell>
        <mxCell id="Hz2MizUJASv87qqMX5tw-39" value="" style="edgeStyle=orthogonalEdgeStyle;rounded=0;orthogonalLoop=1;jettySize=auto;html=1;" edge="1" parent="1" source="Hz2MizUJASv87qqMX5tw-2" target="Hz2MizUJASv87qqMX5tw-36">
          <mxGeometry relative="1" as="geometry">
            <Array as="points">
              <mxPoint x="180" y="360" />
              <mxPoint x="180" y="285" />
            </Array>
          </mxGeometry>
        </mxCell>
        <mxCell id="Hz2MizUJASv87qqMX5tw-2" value="SPA&lt;br&gt;Web browser&amp;nbsp;" style="whiteSpace=wrap;html=1;aspect=fixed;" vertex="1" parent="1">
          <mxGeometry x="40" y="320" width="80" height="80" as="geometry" />
        </mxCell>
        <mxCell id="Hz2MizUJASv87qqMX5tw-9" value="Users DB" style="shape=cylinder3;whiteSpace=wrap;html=1;boundedLbl=1;backgroundOutline=1;size=15;" vertex="1" parent="1">
          <mxGeometry x="705" y="90" width="60" height="80" as="geometry" />
        </mxCell>
        <mxCell id="Hz2MizUJASv87qqMX5tw-10" value="Orders DB" style="shape=cylinder3;whiteSpace=wrap;html=1;boundedLbl=1;backgroundOutline=1;size=15;" vertex="1" parent="1">
          <mxGeometry x="705" y="220" width="60" height="80" as="geometry" />
        </mxCell>
        <mxCell id="Hz2MizUJASv87qqMX5tw-11" value="Notifications DB" style="shape=cylinder3;whiteSpace=wrap;html=1;boundedLbl=1;backgroundOutline=1;size=15;" vertex="1" parent="1">
          <mxGeometry x="705" y="350" width="60" height="80" as="geometry" />
        </mxCell>
        <mxCell id="Hz2MizUJASv87qqMX5tw-12" value="Billing DB" style="shape=cylinder3;whiteSpace=wrap;html=1;boundedLbl=1;backgroundOutline=1;size=15;" vertex="1" parent="1">
          <mxGeometry x="705" y="480" width="60" height="80" as="geometry" />
        </mxCell>
        <mxCell id="Hz2MizUJASv87qqMX5tw-25" value="RabbutMQ" style="html=1;dropTarget=0;whiteSpace=wrap;" vertex="1" parent="1">
          <mxGeometry x="500" y="240" width="120" height="90" as="geometry" />
        </mxCell>
        <mxCell id="Hz2MizUJASv87qqMX5tw-26" value="" style="shape=module;jettyWidth=8;jettyHeight=4;" vertex="1" parent="Hz2MizUJASv87qqMX5tw-25">
          <mxGeometry x="1" width="20" height="20" relative="1" as="geometry">
            <mxPoint x="-27" y="7" as="offset" />
          </mxGeometry>
        </mxCell>
        <mxCell id="Hz2MizUJASv87qqMX5tw-28" value="Billing Service" style="html=1;dropTarget=0;whiteSpace=wrap;" vertex="1" parent="1">
          <mxGeometry x="360" y="390" width="120" height="90" as="geometry" />
        </mxCell>
        <mxCell id="Hz2MizUJASv87qqMX5tw-29" value="" style="shape=module;jettyWidth=8;jettyHeight=4;" vertex="1" parent="Hz2MizUJASv87qqMX5tw-28">
          <mxGeometry x="1" width="20" height="20" relative="1" as="geometry">
            <mxPoint x="-27" y="7" as="offset" />
          </mxGeometry>
        </mxCell>
        <mxCell id="Hz2MizUJASv87qqMX5tw-30" value="Authentication&lt;br style=&quot;border-color: var(--border-color);&quot;&gt;Service" style="html=1;dropTarget=0;whiteSpace=wrap;" vertex="1" parent="1">
          <mxGeometry x="220" y="85" width="120" height="90" as="geometry" />
        </mxCell>
        <mxCell id="Hz2MizUJASv87qqMX5tw-31" value="" style="shape=module;jettyWidth=8;jettyHeight=4;" vertex="1" parent="Hz2MizUJASv87qqMX5tw-30">
          <mxGeometry x="1" width="20" height="20" relative="1" as="geometry">
            <mxPoint x="-27" y="7" as="offset" />
          </mxGeometry>
        </mxCell>
        <mxCell id="Hz2MizUJASv87qqMX5tw-32" value="Order Service" style="html=1;dropTarget=0;whiteSpace=wrap;" vertex="1" parent="1">
          <mxGeometry x="360" y="85" width="120" height="90" as="geometry" />
        </mxCell>
        <mxCell id="Hz2MizUJASv87qqMX5tw-33" value="" style="shape=module;jettyWidth=8;jettyHeight=4;" vertex="1" parent="Hz2MizUJASv87qqMX5tw-32">
          <mxGeometry x="1" width="20" height="20" relative="1" as="geometry">
            <mxPoint x="-27" y="7" as="offset" />
          </mxGeometry>
        </mxCell>
        <mxCell id="Hz2MizUJASv87qqMX5tw-34" value="Notification Service" style="html=1;dropTarget=0;whiteSpace=wrap;" vertex="1" parent="1">
          <mxGeometry x="360" y="240" width="120" height="90" as="geometry" />
        </mxCell>
        <mxCell id="Hz2MizUJASv87qqMX5tw-35" value="" style="shape=module;jettyWidth=8;jettyHeight=4;" vertex="1" parent="Hz2MizUJASv87qqMX5tw-34">
          <mxGeometry x="1" width="20" height="20" relative="1" as="geometry">
            <mxPoint x="-27" y="7" as="offset" />
          </mxGeometry>
        </mxCell>
        <mxCell id="Hz2MizUJASv87qqMX5tw-36" value="API Application&lt;br&gt;Gateway" style="html=1;dropTarget=0;whiteSpace=wrap;" vertex="1" parent="1">
          <mxGeometry x="210" y="240" width="120" height="90" as="geometry" />
        </mxCell>
        <mxCell id="Hz2MizUJASv87qqMX5tw-37" value="" style="shape=module;jettyWidth=8;jettyHeight=4;" vertex="1" parent="Hz2MizUJASv87qqMX5tw-36">
          <mxGeometry x="1" width="20" height="20" relative="1" as="geometry">
            <mxPoint x="-27" y="7" as="offset" />
          </mxGeometry>
        </mxCell>
      </root>
    </mxGraphModel>
  </diagram>
</mxfile>
